<svg width="29" height="28" viewBox="0 0 29 28" fill="none" xmlns="http://www.w3.org/2000/svg">
<path d="M25.8283 13.1713L15.3283 2.67127C15.2199 2.56192 15.0908 2.47513 14.9487 2.4159C14.8065 2.35667 14.654 2.32617 14.5 2.32617C14.346 2.32617 14.1935 2.35667 14.0513 2.4159C13.9092 2.47513 13.7801 2.56192 13.6717 2.67127L3.17167 13.1713C3.00978 13.3353 2.90012 13.5437 2.85652 13.77C2.81291 13.9963 2.83732 14.2305 2.92667 14.4429C3.01419 14.656 3.16282 14.8384 3.35383 14.9671C3.54483 15.0958 3.76967 15.1651 4 15.1663H5.16667V23.6829C5.18794 24.2287 5.42452 24.7437 5.82465 25.1154C6.22478 25.4871 6.75586 25.6852 7.30167 25.6663H10.4167C10.7261 25.6663 11.0228 25.5434 11.2416 25.3246C11.4604 25.1058 11.5833 24.809 11.5833 24.4996V18.7829C11.5833 18.4735 11.7063 18.1768 11.925 17.958C12.1438 17.7392 12.4406 17.6163 12.75 17.6163H16.25C16.5594 17.6163 16.8562 17.7392 17.075 17.958C17.2938 18.1768 17.4167 18.4735 17.4167 18.7829V24.4996C17.4167 24.809 17.5396 25.1058 17.7584 25.3246C17.9772 25.5434 18.2739 25.6663 18.5833 25.6663H21.6983C22.2441 25.6852 22.7752 25.4871 23.1753 25.1154C23.5755 24.7437 23.8121 24.2287 23.8333 23.6829V15.1663H25C25.2303 15.1651 25.4552 15.0958 25.6462 14.9671C25.8372 14.8384 25.9858 14.656 26.0733 14.4429C26.1627 14.2305 26.1871 13.9963 26.1435 13.77C26.0999 13.5437 25.9902 13.3353 25.8283 13.1713Z" fill="#9A9AA2"/>
</svg>
