<svg width="195" height="69" viewBox="0 0 195 69" fill="none" xmlns="http://www.w3.org/2000/svg">
<path d="M50.1468 62.1942C47.3831 63.3198 44.5677 64.314 41.71 65.1735C38.0047 66.3182 34.2293 67.2218 30.4073 67.8786C27.3363 68.4605 24.2091 68.6905 21.0861 68.5643C17.603 68.3744 14.1979 67.4595 11.0886 65.8782C6.89922 63.7684 3.60902 60.2213 1.81946 55.8854C0.310951 51.4253 0.130229 46.623 1.29925 42.0621C2.95758 35.1048 5.92689 28.5274 10.0482 22.682C12.758 18.6764 15.8083 14.9167 18.9012 11.1995C21.9279 7.56124 24.9955 3.95762 28.1042 0.388672C26.1052 3.68874 24.4342 7.17659 23.1149 10.8023C22.0131 13.7146 21.2576 16.7463 20.8638 19.835C20.3652 23.344 20.7923 26.9224 22.1029 30.2155C23.9141 34.2236 27.238 37.3519 31.3484 38.9172C34.2169 39.9554 37.2563 40.4401 40.3054 40.3454C45.0549 40.1571 49.7702 39.4579 54.37 38.2598C59.5248 37.0712 64.6543 35.7802 69.7587 34.3866C100.905 25.912 194.448 0.733901 194.448 0.733901C194.448 0.733901 86.3675 47.1743 50.1468 62.1942Z" stroke="#8685E7" stroke-width="0.5" stroke-linecap="round" stroke-linejoin="round"/>
</svg>
